<svg width="185" height="35" fill="none" xmlns="http://www.w3.org/2000/svg"><g clip-path="url(#a)" fill="#858585"><path d="M68.51 9.353c0-3.688 3.12-6.821 7.762-6.821 4.64 0 7.762 3.13 7.762 6.821 0 3.692-3.121 6.822-7.762 6.822s-7.762-3.13-7.762-6.822Zm25.17 22.54H71.322V23.18H88.95v-1.736H71.323v-3.536h21.892v8.621H75.588v1.83H93.68v3.535ZM79.794 9.353c0-1.829-1.423-3.316-3.526-3.316-2.103 0-3.526 1.49-3.526 3.316 0 1.826 1.423 3.316 3.526 3.316 2.103 0 3.526-1.487 3.526-3.316Zm13.421 7.131h-4.269V2.38h4.27v14.105ZM123.688 30.22h-26.1v-3.688h10.917v-3.13c-3.957-.681-6.001-3.379-6.001-6.39 0-3.501 2.784-6.571 8.101-6.571 5.317 0 8.1 3.07 8.1 6.572 0 3.006-2.04 5.674-5.938 6.39v3.129h10.917v3.688h.004Zm-1.732-20.68H99.32V6.003h9.185V2.252h4.27v3.752h9.185v3.535h-.004Zm-7.42 7.473c0-1.766-1.36-3.1-3.928-3.1-2.567 0-3.927 1.364-3.927 3.1s1.36 3.1 3.927 3.1c2.568 0 3.928-1.398 3.928-3.1ZM126.511 22.84c3.032-.931 4.979-3.688 4.979-8.248V7.896h-4.544V4.204h13.358v3.689h-4.544v6.699c0 4.556 1.947 7.317 4.979 8.248v3.815c-3.185-.805-5.752-2.668-7.112-5.61-1.36 2.942-3.927 4.805-7.112 5.61V22.84h-.004Zm26.906 8.99h-4.177V16.7h-2.939v14.944h-4.113V2.624h4.113v10.388h2.906V2.379h4.206v29.455l.004-.004ZM157.63 3.336h14.752v3.689H161.9v7.69c3.678.093 9.122-.25 12.956-1.271v3.595c-3.897 1.118-10.731 1.643-17.222 1.334V3.336h-.004Zm23.595 28.185h-20.871V21.07h4.266v6.791h16.605v3.659Zm-.372-7.813h-4.265V2.378h4.265v7.75h4.143v3.689h-4.143v9.891ZM12.808 19.971c1.806 2.854 4.897 6.326 9.95 8.45-1.021-1.747-1.679-3.763-1.958-6.017 0-.019-.007-.048-.01-.093-5.623-4.18-6.767-10.454-6.826-10.8l-.008-.05c-.576-3.099-.108-5.357 1.282-6.191.45-.272.985-.38 1.542-.38 1.665 0 3.567.95 4.262 1.404l.074.045a16.325 16.325 0 0 1 2.865 2.168 15.38 15.38 0 0 1 3.679 5.454c.304.76.53 1.506.705 2.218.012-.041.026-.082.034-.123l-.034.126c.729 2.966.48 5.313.458 5.507-.09.726-.235 1.4-.435 2.03a9.292 9.292 0 0 0 .03.07 16.595 16.595 0 0 0 4.789-2.234c.1-1.67.1-6.13-2.151-10.708a2.728 2.728 0 0 0-.097.123c.033-.04.063-.082.097-.123a19.17 19.17 0 0 0-3.396-4.854 18.887 18.887 0 0 0-.993-.965 21.155 21.155 0 0 0-3.277-2.426C22.97 2.338 20.01.523 16.754.523c-1.252 0-2.545.269-3.757.995-1.783 1.073-4.588 3.893-3.329 10.726.067.399.725 3.908 3.14 7.727Z"/><path d="M24.2 30.444c-.367-.425-.71-.872-1.021-1.341-.342.134-.695.26-1.07.372-1.88.56-3.746.678-4.995.678-.925 0-1.516-.067-1.527-.067l-.055-.007c-.067-.008-6.915-.723-9.854-5.86-1.557-2.72-1.635-6.092-.201-8.8a8.19 8.19 0 0 1 1.98-2.474.968.968 0 0 0 .183-1.256L6.064 9.212a.958.958 0 0 0-.817-.447c-.22 0-.439.07-.625.223a12.495 12.495 0 0 0-3.184 3.9c-2.125 4.025-1.835 9.498.457 13.506 4.006 6.997 12.526 7.97 13.206 8.036.17.02.917.094 2.01.094 1.542 0 3.779-.15 6.093-.816 1.149-.332 2.2-.753 3.159-1.26a13.693 13.693 0 0 1-2.166-2.004M53.885 12.889a12.493 12.493 0 0 0-3.17-3.89 1.007 1.007 0 0 0-.635-.227.981.981 0 0 0-.832.454l-1.487 2.336a1.15 1.15 0 0 0 .216 1.483 8.174 8.174 0 0 1 1.865 2.377c1.43 2.709 1.353 6.08-.2 8.8-2.94 5.138-9.784 5.853-9.855 5.86l-.055.008s-.602.067-1.527.067c-.212 0-.446-.004-.688-.015 0 0-.097 0-.264-.011a19.287 19.287 0 0 1-2.092-.216c-.97-.15-2.088-.388-3.035-.782a6.745 6.745 0 0 1-.617-.291c-.186-.1-.39-.227-.606-.369-1.211-.801-2.746-2.15-3.236-3.047v-.004a8.761 8.761 0 0 1-.732-1.692 11.2 11.2 0 0 1-.435-2.03c0-.026-.011-.086-.018-.183a11.358 11.358 0 0 1-.04-.931c-.001-.212-.001-.45.006-.712a18.002 18.002 0 0 1 .51-3.68 14.287 14.287 0 0 0-2.691-5.328c-2.252 4.579-2.252 9.038-2.151 10.707.022.373.048.611.06.67.044.377.103.746.174 1.107.687 3.603 2.497 6.416 5.317 8.33.409.28.843.537 1.293.78a16.69 16.69 0 0 0 3.158 1.259c2.315.667 4.552.816 6.094.816 1.096 0 1.84-.075 2.01-.093.68-.068 9.204-1.04 13.206-8.037 2.296-4.008 2.586-9.481.457-13.505"/><path d="M31.985 7.93a16.645 16.645 0 0 1 2.221-1.59l.075-.046c.698-.45 2.6-1.404 4.262-1.404.56 0 1.092.108 1.545.38 1.39.834 1.858 3.092 1.282 6.192l-.007.048c-.052.31-.966 5.317-5.132 9.359a16.972 16.972 0 0 1-3.247 2.47 18.129 18.129 0 0 1-3.913 1.699c.502.645 1.61 1.617 2.55 2.243.193.127.378.242.55.335.204.112.434.212.68.302.152.056.308.112.471.164a21.814 21.814 0 0 0 3.62-2.128 21.933 21.933 0 0 0 5.58-5.987c2.415-3.815 3.073-7.328 3.14-7.726 1.26-6.83-1.546-9.65-3.33-10.727-1.214-.722-2.507-.99-3.76-.99-3.255 0-6.216 1.814-6.64 2.086a21.158 21.158 0 0 0-3.277 2.425 20.485 20.485 0 0 1 2.687 3.472c.204-.193.42-.387.643-.577Z"/></g><defs><clipPath id="a"><path fill="#fff" transform="translate(0 .523)" d="M0 0h185v34H0z"/></clipPath></defs></svg>